<svg xmlns="http://www.w3.org/2000/svg" viewBox="-339 164.9 512 512"><path d="M172.6 362.5c0-.8-.2-1.9-.5-2.6-.8-2.9-2.5-5.5-5.2-7.3l-73.3-50.9V247c0-7.2-5.9-13.1-13.1-13.1H-3.7L-75.4 184c-4.5-3.1-10.4-3.1-14.9 0l-72.2 49.9h-84c-7.2 0-13.1 5.9-13.1 13.1v54l-73.6 50.9c-3.6 2.5-5.6 6.5-5.6 10.6v.2l.4 284.2c0 3.5 1.4 6.8 3.9 9.3 2.5 2.5 5.8 3.8 9.3 3.8l485.4-.7c7.2 0 13.1-5.9 13.1-13.1l-.7-283.7zm-78.9-28.9l41.9 29.1-41.9 29.1v-58.2zM-83 210.8l33.3 23.2h-66.8l33.5-23.2zm-150.5 49.4h301v149.9l-101 70.2-41.2-32c-.1 0-.1-.1-.2-.1-4.6-3.5-11.1-3.6-15.9.1l-41.5 32.2-101.1-69.9V260.2zm-26.2 72.7v59.6l-43.1-29.8 43.1-29.8zm-53 54.9L-154 497.5l-158.3 122.8-.4-232.5zm25.6 246l204.3-158.5 203.6 157.9-407.9.6zm275.2-136.6l158.3-110 .3 233.1-158.6-123.1z"/><path d="M5.8 312.6h-177.5c-7.2 0-13.1 5.9-13.1 13.1 0 7.2 5.9 13.1 13.1 13.1H5.8c7.2 0 13.1-5.9 13.1-13.1 0-7.2-5.9-13.1-13.1-13.1zm0 68.2h-177.5c-7.2 0-13.1 5.9-13.1 13.1 0 7.2 5.9 13.1 13.1 13.1H5.8c7.2 0 13.1-5.9 13.1-13.1 0-7.2-5.9-13.1-13.1-13.1z"/></svg>