<svg id="Layer_1" xmlns="http://www.w3.org/2000/svg" viewBox="-41 164.9 512 512"><style>.st0{fill:#fdd226}</style><path class="st0" d="M423.7 199.7H223.2v-4.9c0-16.5-13.4-29.9-29.9-29.9h-34.8c-16.5 0-29.9 13.4-29.9 29.9v4.9H80.2c-4.5 0-8.2 3.7-8.2 8.2v65.8H6.3c-4.5 0-8.2 3.6-8.2 8.2v305.5c0 .2 0 .3.1.5 0 .1.1.3.1.4 0 .1.1.3.1.4 0 .1.1.2.1.4 0 .1.1.3.1.4 0 .1.1.2.2.3.1.1.1.3.2.4.1.1.1.2.2.3.1.1.1.3.2.4.1.1.2.2.2.3.1.1.1.2.2.3.2.2.3.4.5.6l82.6 82.6c.2.2.4.3.6.5.1.1.2.1.3.2.1.1.2.2.4.3.1.1.2.1.3.2.1.1.2.1.3.2.1.1.2.1.4.2.1.1.2.1.4.2.1 0 .2.1.4.1.1 0 .3.1.4.1.1 0 .2.1.4.1.1 0 .3.1.4.1.1 0 .3 0 .4.1.1 0 .2 0 .4.1h240c4.5 0 8.2-3.7 8.2-8.2v-35.3h87.5c4.5 0 8.2-3.6 8.2-8.2V207.8c0-4.5-3.7-8.1-8.2-8.1zm-278.8-4.9c0-7.5 6.1-13.6 13.6-13.6h34.8c7.5 0 13.6 6.1 13.6 13.6v4.9h-62v-4.9zm0 95.1h40.2v40.2h-40.2v-40.2zm37.5 56.5c-2.5 3.3-6.4 5.4-10.8 5.4h-13c-4.4 0-8.4-2.1-10.8-5.4h34.6zM88.4 216h40.2v57.6H88.4V216zm-7.6 409.3v23.8L26 594.3h54.7v31zm239.1 0v35.3H97.1v-74.4c0-4.5-3.6-8.2-8.2-8.2H14.4V289.9h114.2v40.2H62.8c-4.5 0-8.2 3.6-8.2 8.2 0 4.5 3.6 8.2 8.2 8.2h66.9c3.6 12.5 15.1 21.7 28.8 21.7h13c13.7 0 25.2-9.2 28.8-21.7h75.6c4.5 0 8.2-3.6 8.2-8.2 0-4.5-3.6-8.2-8.2-8.2h-74.5v-40.2h118.5v335.4zm95.7-8.2h-79.4V281.7c0-4.5-3.6-8.2-8.2-8.2H201.4v-39.7c0-4.5-3.6-8.2-8.2-8.2s-8.2 3.7-8.2 8.2v39.7h-40.2V216h270.7l.1 401.1z"/><path class="st0" d="M275.9 399.7H62.8c-4.5 0-8.2 3.6-8.2 8.2 0 4.5 3.6 8.2 8.2 8.2h213.1c4.5 0 8.2-3.6 8.2-8.2-.1-4.6-3.7-8.2-8.2-8.2zm0 69.6H62.8c-4.5 0-8.2 3.6-8.2 8.2s3.6 8.2 8.2 8.2h213.1c4.5 0 8.2-3.6 8.2-8.2s-3.7-8.2-8.2-8.2zm0 69.5H62.8c-4.5 0-8.2 3.6-8.2 8.2 0 4.5 3.6 8.2 8.2 8.2h213.1c4.5 0 8.2-3.7 8.2-8.2-.1-4.5-3.7-8.2-8.2-8.2z"/></svg>