<svg xmlns="http://www.w3.org/2000/svg" viewBox="-60 184.1 473.8 473.8"><path d="M227 541c.2-12.2-3.6-22.8-11.3-30.5-7.6-7.6-18.2-11.6-30.7-11.6l-39-.1c-.7-2.5-1.5-4.9-2.3-7.2-1.1-3.3-2.2-6.5-2.8-9.4-6.7-29.9-8.2-61.7-4.5-97.3 2-17.5 5.1-30.9 9.6-43 9.7.4 19.2.3 28.4.2 3.5 0 7-.1 10.4-.1 26 0 42.8-16.8 42.8-42.8v-33.8c0-3.8 0-7.8.1-11.6.1-7.5.2-15.4-.1-23.1-.1-11.9-4.1-22.3-11.6-29.8s-18-11.7-30.1-11.9h-.2l-42.2.2c-15.8 0-30 5.1-42.2 15.3-19.5 16.6-31 38.7-38 53.8-17 37-27.1 77-31.6 126.2-5.3 59.4 1.8 117.5 21 172.8 7.5 21 18.5 47.9 38.3 70.5 1.2 1.4 2.5 2.8 3.8 4 14.3 14.3 31.4 21.1 51 20.3.2-.1.4 0 .6-.1 7.1-.7 14.3-.5 22-.4 5.2.1 10.6.2 16 .1 12.5-.2 23.1-4.5 30.7-12.1 7.7-7.7 11.7-18.3 11.7-30.7l.2-67.9zm-43 87.3c-.1-.1-.1 0 0 0-5 .2-9.8.1-15.1 0-7.9-.2-16-.2-24.3.4-12.9.4-23.4-3.8-33.1-13.4-.9-.9-1.9-1.9-2.8-2.9-17.2-19.5-27.1-43.8-33.8-62.7C56.9 497.8 50.2 443 55.2 387c4.3-46.5 13.7-84.1 29.6-118.7 9.6-21.1 19.5-35.2 31.8-45.6 7.9-6.6 16.6-9.8 26.9-9.8h42.2c5.9.2 10.6 1.9 13.8 5 3.9 3.9 4.7 9.4 4.7 13.4v.4c.2 7.3.2 14.5.1 22.2-.1 3.9-.1 7.9-.1 11.9v33.8c0 13.1-6.1 19.2-19.2 19.2-3.6 0-7.1.1-10.6 0-10.5.1-20.4.1-30.6-.4-.2 0-.4-.1-.6 0-10.6 0-14.8 6.2-17.3 10.8-.1.2-.2.5-.4.7-6.2 15-10.1 31.2-12.6 52.6v.1c-4 38.1-2.3 72.5 4.9 104.9.9 4.1 2.2 8 3.5 11.7 1.1 3.3 2.2 6.5 2.8 9.4l.3 1.2c1.1 3.2 2.5 5.6 4.6 7.7 5.1 5.1 11.6 5.1 13.7 5.1H185c4.2 0 10.1.8 14 4.7 3.8 3.8 4.6 9.4 4.4 13.4V609c-.1 12.5-6.6 19-19.4 19.3zM265.5 356c13.5 18.9 20.5 41.3 20.5 64.8s-7.1 45.8-20.5 64.8c-3.4 4.8-2.7 11.1 1.3 15.1.5.5 1 .9 1.5 1.3 5.3 3.8 12.7 2.5 16.5-2.8 16.3-22.9 24.9-50.1 24.9-78.4 0-28.3-8.6-55.5-24.9-78.4-3.8-5.3-11.1-6.6-16.4-2.8-5.3 3.8-6.7 11.1-2.9 16.4zm74.8 193.9c26.8-37.8 40.9-82.4 40.9-129.1 0-46.7-14.2-91.3-40.9-129.1-3.7-5.3-11.1-6.5-16.4-2.8-5.3 3.8-6.6 11.1-2.8 16.5 23.9 33.7 36.5 73.6 36.6 115.4 0 41.8-12.7 81.7-36.6 115.4-3.4 4.8-2.7 11.1 1.3 15.1.5.5 1 .9 1.5 1.3 5.3 3.8 12.7 2.6 16.4-2.7z"/></svg>