<?xml version="1.0" encoding="utf-8"?>
<!-- Generator: Adobe Illustrator 20.0.0, SVG Export Plug-In . SVG Version: 6.00 Build 0)  -->
<svg version="1.1" id="Layer_1" xmlns="http://www.w3.org/2000/svg" xmlns:xlink="http://www.w3.org/1999/xlink" x="0px" y="0px"
	 viewBox="-339 164.9 512 512" style="enable-background:new -339 164.9 512 512;" xml:space="preserve">
<g>
	<g>
		<path d="M172.6,362.5c0-0.8-0.2-1.9-0.5-2.6c-0.8-2.9-2.5-5.5-5.2-7.3l-73.3-50.9V247c0-7.2-5.9-13.1-13.1-13.1H-3.7l-71.7-49.9
			c-4.5-3.1-10.4-3.1-14.9,0l-72.2,49.9h-84c-7.2,0-13.1,5.9-13.1,13.1v54l-73.6,50.9c-3.6,2.5-5.6,6.5-5.6,10.6c0,0.1,0,0.1,0,0.2
			l0.4,284.2c0,3.5,1.4,6.8,3.9,9.3c2.5,2.5,5.8,3.8,9.3,3.8c0,0,0,0,0,0l485.4-0.7c7.2,0,13.1-5.9,13.1-13.1L172.6,362.5z
			 M93.7,333.6l41.9,29.1l-41.9,29.1V333.6z M-83,210.8l33.3,23.2h-66.8L-83,210.8z M-233.5,260.2H67.5v149.9l-101,70.2l-41.2-32
			c-0.1,0-0.1-0.1-0.2-0.1c-4.6-3.5-11.1-3.6-15.9,0.1l-41.5,32.2l-101.1-69.9V260.2z M-259.7,332.9v59.6l-43.1-29.8L-259.7,332.9z
			 M-312.7,387.8l158.7,109.7l-158.3,122.8L-312.7,387.8z M-287.1,633.8l204.3-158.5l203.6,157.9L-287.1,633.8z M-11.9,497.2
			l158.3-110l0.3,233.1L-11.9,497.2z"/>
	</g>
</g>
<g>
	<g>
		<path d="M5.8,312.6h-177.5c-7.2,0-13.1,5.9-13.1,13.1c0,7.2,5.9,13.1,13.1,13.1H5.8c7.2,0,13.1-5.9,13.1-13.1
			C18.9,318.5,13,312.6,5.8,312.6z"/>
	</g>
</g>
<g>
	<g>
		<path d="M5.8,380.8h-177.5c-7.2,0-13.1,5.9-13.1,13.1c0,7.2,5.9,13.1,13.1,13.1H5.8c7.2,0,13.1-5.9,13.1-13.1
			C18.9,386.7,13,380.8,5.8,380.8z"/>
	</g>
</g>
</svg>
