<?xml version="1.0" encoding="utf-8"?>
<!-- Generator: Adobe Illustrator 20.0.0, SVG Export Plug-In . SVG Version: 6.00 Build 0)  -->
<svg version="1.1" id="Layer_1" xmlns="http://www.w3.org/2000/svg" xmlns:xlink="http://www.w3.org/1999/xlink" x="0px" y="0px"
	 viewBox="-41 164.9 512 512" style="enable-background:new -41 164.9 512 512;" xml:space="preserve">
<style type="text/css">
	.st0{fill:#FDD226;}
</style>
<g>
	<g>
		<path class="st0" d="M423.7,199.7H223.2v-4.9c0-16.5-13.4-29.9-29.9-29.9h-34.8c-16.5,0-29.9,13.4-29.9,29.9v4.9H80.2
			c-4.5,0-8.2,3.7-8.2,8.2v65.8H6.3c-4.5,0-8.2,3.6-8.2,8.2v304.4c0,0.3,0,0.5,0,0.8c0,0.1,0,0.2,0,0.3c0,0.2,0,0.3,0.1,0.5
			c0,0.1,0.1,0.3,0.1,0.4c0,0.1,0.1,0.3,0.1,0.4c0,0.1,0.1,0.2,0.1,0.4c0,0.1,0.1,0.3,0.1,0.4c0,0.1,0.1,0.2,0.2,0.3
			c0.1,0.1,0.1,0.3,0.2,0.4c0.1,0.1,0.1,0.2,0.2,0.3c0.1,0.1,0.1,0.3,0.2,0.4c0.1,0.1,0.2,0.2,0.2,0.3c0.1,0.1,0.1,0.2,0.2,0.3
			c0.2,0.2,0.3,0.4,0.5,0.6c0,0,0,0,0,0l82.6,82.6c0,0,0,0,0,0c0.2,0.2,0.4,0.3,0.6,0.5c0.1,0.1,0.2,0.1,0.3,0.2
			c0.1,0.1,0.2,0.2,0.4,0.3c0.1,0.1,0.2,0.1,0.3,0.2c0.1,0.1,0.2,0.1,0.3,0.2c0.1,0.1,0.2,0.1,0.4,0.2c0.1,0.1,0.2,0.1,0.4,0.2
			c0.1,0,0.2,0.1,0.4,0.1c0.1,0,0.3,0.1,0.4,0.1c0.1,0,0.2,0.1,0.4,0.1c0.1,0,0.3,0.1,0.4,0.1c0.1,0,0.3,0,0.4,0.1
			c0.1,0,0.2,0,0.4,0.1c0.3,0,0.5,0,0.8,0h239.2c4.5,0,8.2-3.7,8.2-8.2v-35.3h87.5c4.5,0,8.2-3.6,8.2-8.2V207.8
			C431.9,203.3,428.2,199.7,423.7,199.7z M144.9,194.8c0-7.5,6.1-13.6,13.6-13.6h34.8c7.5,0,13.6,6.1,13.6,13.6v4.9h-62L144.9,194.8
			L144.9,194.8z M144.9,289.9h40.2v40.2h-40.2L144.9,289.9L144.9,289.9z M182.4,346.4c-2.5,3.3-6.4,5.4-10.8,5.4h-13
			c-4.4,0-8.4-2.1-10.8-5.4H182.4z M88.4,216h40.2v57.6H88.4V216z M80.8,625.3v23.8L26,594.3h54.2h0.5V625.3z M319.9,625.3v35.3
			H97.1v-35.3v-39.1c0-4.5-3.6-8.2-8.2-8.2h-8.7H14.4V289.9h65.8h48.4v40.2H80.2H62.8c-4.5,0-8.2,3.6-8.2,8.2c0,4.5,3.6,8.2,8.2,8.2
			h17.4h49.5c3.6,12.5,15.1,21.7,28.8,21.7h13c13.7,0,25.2-9.2,28.8-21.7h75.6c4.5,0,8.2-3.6,8.2-8.2c0-4.5-3.6-8.2-8.2-8.2h-74.5
			v-40.2h118.5L319.9,625.3L319.9,625.3z M415.6,617.1h-79.4V281.7c0-4.5-3.6-8.2-8.2-8.2H201.4v-39.7c0-4.5-3.6-8.2-8.2-8.2
			s-8.2,3.7-8.2,8.2v39.7h-40.2V216h270.7L415.6,617.1L415.6,617.1z"/>
	</g>
</g>
<g>
	<g>
		<path class="st0" d="M275.9,399.7H80.2H62.8c-4.5,0-8.2,3.6-8.2,8.2c0,4.5,3.6,8.2,8.2,8.2h17.4h195.7c4.5,0,8.2-3.6,8.2-8.2
			C284,403.3,280.4,399.7,275.9,399.7z"/>
	</g>
</g>
<g>
	<g>
		<path class="st0" d="M275.9,469.3H80.2H62.8c-4.5,0-8.2,3.6-8.2,8.2s3.6,8.2,8.2,8.2h17.4h195.7c4.5,0,8.2-3.6,8.2-8.2
			S280.4,469.3,275.9,469.3z"/>
	</g>
</g>
<g>
	<g>
		<path class="st0" d="M275.9,538.8H80.2H62.8c-4.5,0-8.2,3.6-8.2,8.2c0,4.5,3.6,8.2,8.2,8.2h17.4h195.7c4.5,0,8.2-3.7,8.2-8.2
			C284,542.5,280.4,538.8,275.9,538.8z"/>
	</g>
</g>
</svg>
