<?xml version="1.0" encoding="utf-8"?>
<!-- Generator: Adobe Illustrator 20.0.0, SVG Export Plug-In . SVG Version: 6.00 Build 0)  -->
<svg version="1.1" id="Capa_1" xmlns="http://www.w3.org/2000/svg" xmlns:xlink="http://www.w3.org/1999/xlink" x="0px" y="0px"
	 viewBox="-60 184.1 473.8 473.8" style="enable-background:new -60 184.1 473.8 473.8;" xml:space="preserve">
<g>
	<g>
		<path d="M227,541c0.2-12.2-3.6-22.8-11.3-30.5c-7.6-7.6-18.2-11.6-30.7-11.6l-39-0.1c-0.7-2.5-1.5-4.9-2.3-7.2
			c-1.1-3.3-2.2-6.5-2.8-9.4c-6.7-29.9-8.2-61.7-4.5-97.3c2-17.5,5.1-30.9,9.6-43c9.7,0.4,19.2,0.3,28.4,0.2c3.5,0,7-0.1,10.4-0.1
			c26,0,42.8-16.8,42.8-42.8v-33.8c0-3.8,0-7.8,0.1-11.6c0.1-7.5,0.2-15.4-0.1-23.1c-0.1-11.9-4.1-22.3-11.6-29.8
			s-18-11.7-30.1-11.9c-0.1,0-0.1,0-0.2,0l-42.2,0.2c-15.8,0-30,5.1-42.2,15.3c-19.5,16.6-31,38.7-38,53.8
			c-17,37-27.1,77-31.6,126.2c-5.3,59.4,1.8,117.5,21,172.8c7.5,21,18.5,47.9,38.3,70.5c1.2,1.4,2.5,2.8,3.8,4
			c14.3,14.3,31.4,21.1,51,20.3c0.2-0.1,0.4,0,0.6-0.1c7.1-0.7,14.3-0.5,22-0.4c5.2,0.1,10.6,0.2,16,0.1
			c12.5-0.2,23.1-4.5,30.7-12.1c7.7-7.7,11.7-18.3,11.7-30.7L227,541z M184,628.3C183.9,628.2,183.9,628.3,184,628.3
			c-5,0.2-9.8,0.1-15.1,0c-7.9-0.2-16-0.2-24.3,0.4c-12.9,0.4-23.4-3.8-33.1-13.4c-0.9-0.9-1.9-1.9-2.8-2.9
			c-17.2-19.5-27.1-43.8-33.8-62.7C56.9,497.8,50.2,443,55.2,387c4.3-46.5,13.7-84.1,29.6-118.7c9.6-21.1,19.5-35.2,31.8-45.6
			c7.9-6.6,16.6-9.8,26.9-9.8h42.2c5.9,0.2,10.6,1.9,13.8,5c3.9,3.9,4.7,9.4,4.7,13.4c0,0.1,0,0.2,0,0.4c0.2,7.3,0.2,14.5,0.1,22.2
			c-0.1,3.9-0.1,7.9-0.1,11.9v33.8c0,13.1-6.1,19.2-19.2,19.2c-3.6,0-7.1,0.1-10.6,0c-10.5,0.1-20.4,0.1-30.6-0.4
			c-0.2,0-0.4-0.1-0.6,0c-10.6,0-14.8,6.2-17.3,10.8c-0.1,0.2-0.2,0.5-0.4,0.7c-6.2,15-10.1,31.2-12.6,52.6v0.1
			c-4,38.1-2.3,72.5,4.9,104.9c0.9,4.1,2.2,8,3.5,11.7c1.1,3.3,2.2,6.5,2.8,9.4c0.1,0.4,0.2,0.8,0.3,1.2c1.1,3.2,2.5,5.6,4.6,7.7
			c5.1,5.1,11.6,5.1,13.7,5.1h42.3c4.2,0,10.1,0.8,14,4.7c3.8,3.8,4.6,9.4,4.4,13.4c0,0.1,0,0.1,0,0.2v68.1
			C203.3,621.5,196.8,628,184,628.3z"/>
		<path d="M265.5,356c13.5,18.9,20.5,41.3,20.5,64.8c0,23.5-7.1,45.8-20.5,64.8c-3.4,4.8-2.7,11.1,1.3,15.1c0.5,0.5,1,0.9,1.5,1.3
			c5.3,3.8,12.7,2.5,16.5-2.8c16.3-22.9,24.9-50.1,24.9-78.4c0-28.3-8.6-55.5-24.9-78.4c-3.8-5.3-11.1-6.6-16.4-2.8
			C263.1,343.4,261.7,350.7,265.5,356z"/>
		<path d="M340.3,549.9c26.8-37.8,40.9-82.4,40.9-129.1c0-46.7-14.2-91.3-40.9-129.1c-3.7-5.3-11.1-6.5-16.4-2.8
			c-5.3,3.8-6.6,11.1-2.8,16.5c23.9,33.7,36.5,73.6,36.6,115.4c0,41.8-12.7,81.7-36.6,115.4c-3.4,4.8-2.7,11.1,1.3,15.1
			c0.5,0.5,1,0.9,1.5,1.3C329.2,556.4,336.6,555.2,340.3,549.9z"/>
	</g>
</g>
</svg>
